<svg xmlns="http://www.w3.org/2000/svg" xmlns:xlink="http://www.w3.org/1999/xlink" width="12" height="12" viewBox="0 0 12 12">
    <defs>
        <path id="a" d="M6 10.661c-.927 0-1.131 1.022-1.854.787-.723-.235-.288-1.181-1.038-1.726-.75-.545-1.515.161-1.962-.454-.447-.615.461-1.125.175-2.006C1.034 6.38 0 6.502 0 5.742s1.034-.64 1.32-1.52c.287-.883-.62-1.392-.174-2.007.447-.615 1.212.091 1.962-.454S3.423.27 4.146.035C4.869-.2 5.073.821 6 .821S7.131-.199 7.854.035c.723.235.288 1.181 1.038 1.726.75.545 1.515-.161 1.962.454.447.615-.461 1.124-.175 2.006.287.882 1.321.76 1.321 1.52s-1.034.64-1.32 1.52c-.287.882.62 1.392.174 2.007-.447.615-1.212-.091-1.962.454s-.315 1.49-1.038 1.726c-.723.235-.927-.787-1.854-.787z"/>
        <path id="c" d="M6 10.661c-.927 0-1.131 1.022-1.854.787-.723-.235-.288-1.181-1.038-1.726-.75-.545-1.515.161-1.962-.454-.447-.615.461-1.125.175-2.006C1.034 6.38 0 6.502 0 5.742s1.034-.64 1.32-1.52c.287-.883-.62-1.392-.174-2.007.447-.615 1.212.091 1.962-.454S3.423.27 4.146.035C4.869-.2 5.073.821 6 .821S7.131-.199 7.854.035c.723.235.288 1.181 1.038 1.726.75.545 1.515-.161 1.962.454.447.615-.461 1.124-.175 2.006.287.882 1.321.76 1.321 1.52s-1.034.64-1.32 1.52c-.287.882.62 1.392.174 2.007-.447.615-1.212-.091-1.962.454s-.315 1.49-1.038 1.726c-.723.235-.927-.787-1.854-.787z"/>
    </defs>
    <g fill="none" fill-rule="evenodd">
        <mask id="b" fill="#fff">
            <use xlink:href="#a"/>
        </mask>
        <use fill="#3D3D3D" xlink:href="#a"/>
        <path fill="#FFF" d="M3.4 2.8h1.2v9H3.4zM5.8 5.2H7v7.2H5.8zM8.2 7.6h1.2v4.8H8.2z" mask="url(#b)"/>
        <path fill="#FFF" d="M8.2 7.6H13v1.2H8.2zM5.8 5.2H13v1.2H5.8zM3.4 2.8h9V4h-9z" mask="url(#b)"/>
        <path stroke="#3D3D3D" stroke-opacity=".15" stroke-width=".25" d="M7.003 10.976c-.041-.036.16.14.206.178.232.192.39.245.606.175.248-.08.328-.222.423-.644.041-.18.05-.22.075-.304.095-.329.242-.569.505-.76.038-.028.076-.052.115-.075.304-.176.553-.197 1.037-.152.475.044.626.017.783-.2a.48.48 0 0 0 .101-.317c-.005-.129-.034-.21-.168-.523-.198-.461-.25-.749-.126-1.13.114-.352.321-.567.677-.788.047-.029.104-.063.202-.12.326-.197.436-.325.436-.575 0-.249-.11-.377-.436-.573a14.003 14.003 0 0 1-.202-.121c-.356-.221-.563-.436-.677-.787-.124-.383-.072-.67.126-1.132.134-.313.163-.393.168-.522a.48.48 0 0 0-.101-.318c-.157-.216-.308-.243-.783-.2-.484.046-.733.025-1.037-.151a1.326 1.326 0 0 1-.115-.075c-.263-.191-.41-.431-.505-.76a4.392 4.392 0 0 1-.075-.304C8.143.376 8.063.234 7.815.154 7.6.084 7.441.137 7.21.329c-.046.037-.248.214-.206.178-.35.303-.615.44-1.003.44-.388 0-.653-.137-1.003-.44.041.036-.16-.14-.206-.178-.232-.192-.39-.245-.606-.175-.248.08-.328.222-.423.644-.041.18-.05.22-.075.304-.095.329-.242.569-.505.76a1.326 1.326 0 0 1-.115.075c-.304.176-.553.197-1.037.152-.475-.044-.626-.017-.783.2a.48.48 0 0 0-.101.317c.005.129.034.21.168.522.198.462.25.75.126 1.132-.114.35-.321.566-.677.787l-.202.12c-.326.197-.436.325-.436.574 0 .25.11.378.436.574l.202.121c.356.22.563.436.677.787.124.382.072.67-.126 1.131-.134.314-.163.394-.168.523a.48.48 0 0 0 .101.318c.157.216.308.243.783.2.484-.046.733-.025 1.037.151.039.023.077.047.115.075.263.191.41.431.505.76.024.084.034.123.075.304.095.422.175.564.423.644.216.07.374.017.606-.175.046-.038.248-.214.206-.178.35-.303.615-.44 1.003-.44.388 0 .653.137 1.003.44zm-1.842.188z"/>
    </g>
</svg>
