<svg xmlns="http://www.w3.org/2000/svg" width="24" height="24" viewBox="0 0 24 24">
    <g fill="none" fill-rule="evenodd">
        <g fill="#787878">
            <path d="M6.75 9.485h-3a1 1 0 0 0-1 1v10a1 1 0 0 0 1 1h3a1 1 0 0 0 1-1v-10a1 1 0 0 0-1-1M20.657 8.566a2.363 2.363 0 0 0-1.779-.813H16.62l.164-.627c.137-.528.201-1.12.201-1.863 0-1.919-1.375-2.778-2.738-2.778-.444 0-.766.123-.986.376-.2.227-.282.53-.243.935l.03 1.23-2.903 2.94c-.593.6-.894 1.23-.894 1.872v9.647a.5.5 0 0 0 .5.5h7.687a2.388 2.388 0 0 0 2.348-2.07l1.445-7.452a2.44 2.44 0 0 0-.574-1.897"/>
        </g>
    </g>
</svg>
