<svg xmlns="http://www.w3.org/2000/svg" xmlns:xlink="http://www.w3.org/1999/xlink" width="12" height="12" viewBox="0 0 12 12">
    <defs>
        <path id="a" d="M6 10.661c-.927 0-1.131 1.022-1.854.787-.723-.235-.288-1.181-1.038-1.726-.75-.545-1.515.161-1.962-.454-.447-.615.461-1.125.175-2.006C1.034 6.38 0 6.502 0 5.742s1.034-.64 1.32-1.52c.287-.883-.62-1.392-.174-2.007.447-.615 1.212.091 1.962-.454S3.423.27 4.146.035C4.869-.2 5.073.821 6 .821S7.131-.199 7.854.035c.723.235.288 1.181 1.038 1.726.75.545 1.515-.161 1.962.454.447.615-.461 1.124-.175 2.006.287.882 1.321.76 1.321 1.52s-1.034.64-1.32 1.52c-.287.882.62 1.392.174 2.007-.447.615-1.212-.091-1.962.454s-.315 1.49-1.038 1.726c-.723.235-.927-.787-1.854-.787z"/>
    </defs>
    <g fill="none" fill-rule="evenodd">
        <mask id="b" fill="#fff">
            <use xlink:href="#a"/>
        </mask>
        <use fill="#FF2F6E" xlink:href="#a"/>
        <path fill="#FFF" d="M6.754 6.754v-4.8h1.2v6h-3.6v-1.2h2.4z" mask="url(#b)" transform="rotate(45 6.154 4.954)"/>
    </g>
</svg>
